# xmcd
#
# Track frame offsets:
#	150
#	15838
#	37078
#	52252
#	71680
#	94272
#	122843
#	137061
#	155172
#	173142
#	189410
#	202974
#	216481
#	233197
#	254890
#	275015
#	294129
#	309778
#
# Disc length: 4370 seconds
#
# Revision: 0
# Processed by: cddbd v1.5.1PL2 Copyright (c) Steve Scherf et al.
# Submitted via: audiograbber 1.83.01
#
DISCID=13111012
DTITLE=diverse Interpreten - Oldies 1
DYEAR=1900
DGENRE=
TTITLE0=Daddy Cool
TTITLE1=Born in the USA
TTITLE2=Hungry Heart
TTITLE3=Streets of Philadelphia
TTITLE4=The river
TTITLE5=Let's Make A Night To Remember
TTITLE6=Money, Money, Money
TTITLE7=Walking on Broken Glass
TTITLE8=Eternal Flame
TTITLE9=Eve Of Destruction
TTITLE10=Rock and Roll Love Letter
TTITLE11=Saturday Night
TTITLE12=Sexx Laws
TTITLE13=Stayin Alive (Saturday Night Fever)
TTITLE14=Circle In The Sand
TTITLE15=Take My Breath Away
TTITLE16=Achy Breaky Heart
TTITLE17=Beverly Hills Cop Soundtrack - Shakedown
EXTD=
EXTT0=
EXTT1=
EXTT2=
EXTT3=
EXTT4=
EXTT5=
EXTT6=
EXTT7=
EXTT8=
EXTT9=
EXTT10=
EXTT11=
EXTT12=
EXTT13=
EXTT14=
EXTT15=
EXTT16=
EXTT17=
PLAYORDER=
